# xmcd CD database file
#
# Track frame offsets:
#	150
#	15774
#	28935
#	41109
#	58179
#	75393
#	93489
#	113677
#	131269
#	145974
#	161326
#	179120
#
# Disc length: 2619 seconds
#
# Revision: 0
# Processed by: cddbd v1.5.2PL0 Copyright (c) Steve Scherf et al.
# Submitted via: CDex 1.70beta2
#
DISCID=970a390c
DTITLE=Ed Snodderly - Little Egypt and Other Attractions
DYEAR=2011
DGENRE=Country
TTITLE0=Johnson City Rag
TTITLE1=Little Egypt
TTITLE2=Black Crow
TTITLE3=Somewhere Old and Of This World
TTITLE4=Gone Walking
TTITLE5=I'm Gone
TTITLE6=Falling Bones Dance
TTITLE7=Missing
TTITLE8=On The Banks
TTITLE9=Tell Me
TTITLE10=Gibraltar
TTITLE11=A Life Of My Own
EXTD=YEAR: 2011
EXTT0=
EXTT1=
EXTT2=
EXTT3=
EXTT4=
EXTT5=
EXTT6=
EXTT7=
EXTT8=
EXTT9=
EXTT10=
EXTT11=
PLAYORDER=
